<svg xmlns="http://www.w3.org/2000/svg" version="1.1" xmlns:xlink="http://www.w3.org/1999/xlink" xmlns:svgjs="http://svgjs.dev/svgjs" width="1500" height="734" viewBox="0 0 1500 734"><g transform="matrix(1,0,0,1,-0.9090909090909918,-0.8685745858367113)"><svg viewBox="0 0 396 194" data-background-color="#ffffff" preserveAspectRatio="xMidYMid meet" height="734" width="1500" xmlns="http://www.w3.org/2000/svg" xmlns:xlink="http://www.w3.org/1999/xlink"><g id="tight-bounds" transform="matrix(1,0,0,1,0.2400000000000091,0.22956875974431057)"><svg viewBox="0 0 395.52 193.54086248051138" height="193.54086248051138" width="395.52"><g><svg viewBox="0 0 580.0145781081821 283.8200892453669" height="193.54086248051138" width="395.52"><g transform="matrix(1,0,0,1,182.51697810818226,65.56424543037265)"><svg viewBox="0 0 397.4975999999999 152.69159838462159" height="152.69159838462159" width="397.4975999999999"><g id="textblocktransform"><svg viewBox="0 0 397.4975999999999 152.69159838462159" height="152.69159838462159" width="397.4975999999999" id="textblock"><g><rect width="397.4975999999999" height="7.124875154313401" x="0" y="87.39953836890845" fill="#f76d6d" opacity="1" stroke-width="0" stroke="transparent" fill-opacity="1" class="rect-yte-0" data-fill-palette-color="primary" rx="1%" id="yte-0" data-palette-color="#f76d6d"></rect></g><g transform="matrix(1,0,0,1,0.9887999999999693,0)"><svg viewBox="0 0 395.52 79.00636083110471" height="79.00636083110471" width="395.52"><g transform="matrix(1,0,0,1,0,0)"><svg width="395.52" viewBox="1.05 -36.7 243.01999999999998 48.550000000000004" height="79.00636083110471" data-palette-color="#f76d6d"><path d="M14.25-20.9L14.25-20.9 14.25-16.15Q11.85-16.15 10.55-16.1L10.55-16.1Q10.4-11.1 10.4 0.7L10.4 0.7 4.5 0.15Q4.5-8.6 4.65-15.7L4.65-15.7Q3.9-15.7 1.8-15.45L1.8-15.45 1.05-19.55Q2.25-19.8 4.8-20.2L4.8-20.2Q4.9-23.9 5.2-31L5.2-31 11.15-30.45Q10.85-25.5 10.7-20.85L10.7-20.85Q11.95-20.9 14.25-20.9ZM23.4-20.35L23.4-20.35Q25.7-23.2 27.92-23.2 30.15-23.2 31.55-21.7L31.55-21.7Q34-19.1 34-15.1L34-15.1Q34-7.85 33.45 0.05L33.45 0.05 27.65-0.5Q28-7.85 28-14.95L28-14.95Q28-17.6 26.65-17.6L26.65-17.6Q25.05-17.6 23.2-10.6L23.2-10.6Q23.1-5.6 22.7 0.75L22.7 0.75 16.85 0.2Q17.5-8.4 17.5-19 17.5-29.6 17.15-36.05L17.15-36.05 23-35.5Q23.4-28.45 23.4-20.35ZM44.8-3.6L44.8-3.6Q46.7-3.6 48.85-7.25L48.85-7.25 52.65-5Q51.7-3.35 50.82-2.2 49.95-1.05 48.2 0 46.45 1.05 44.3 1.05L44.3 1.05Q41.15 1.05 39-1.63 36.85-4.3 36.85-8.85L36.85-8.85Q36.85-14.05 38.7-18.55L38.7-18.55Q39.7-20.9 41.57-22.38 43.45-23.85 45.42-23.85 47.4-23.85 48.6-23.23 49.8-22.6 50.52-21.83 51.25-21.05 51.8-19.55 52.35-18.05 52.57-17.1 52.8-16.15 52.95-14.35L52.95-14.35Q53.15-11.95 53.15-10L53.15-10Q49.15-8.9 42.8-8L42.8-8Q42.95-6 43.5-4.8 44.05-3.6 44.8-3.6ZM45.9-18.95L45.9-18.95Q44.8-18.95 43.92-16.75 43.05-14.55 42.9-11.65L42.9-11.65Q45.55-12.2 47.5-12.7L47.5-12.7Q47.5-18.95 45.9-18.95ZM66.44-22.65L66.44-22.65 66.49-28.85Q66.49-32.3 66.34-36.7L66.34-36.7 72.19-36.2Q72.29-32.65 72.29-23.33 72.29-14 71.49 0.7L71.49 0.7 67.04 0.3Q66.89-1.7 66.74-4.4L66.74-4.4Q64.59-0.1 62.09-0.1L62.09-0.1Q58.24-0.1 56.74-2.5 55.24-4.9 55.24-9.47 55.24-14.05 57.22-18.95 59.19-23.85 61.69-23.85L61.69-23.85Q63.94-23.85 66.44-22.65ZM66.54-13.2L66.59-18Q65.34-18.95 64.12-18.95 62.89-18.95 61.99-15.73 61.09-12.5 61.09-9 61.09-5.5 62.79-5.5L62.79-5.5Q63.44-5.5 64.54-7.68 65.64-9.85 66.54-13.2L66.54-13.2ZM77.89 0.15L77.89-23.85 83.59-23.3 83.59 0.7 77.89 0.15ZM77.79-27.1L78.29-32.65 83.89-32 83.39-26.4 77.79-27.1ZM98.19-18.05L98.19-18.05Q96.09-18.05 95.04-12.75L95.04-12.75Q95.14-9.25 95.14-6.05 95.14-2.85 94.94 1.15L94.94 1.15 89.14 0.65Q89.29-6.7 89.29-7.45L89.29-7.45Q89.29-16.7 88.39-21.6L88.39-21.6 92.14-21.2Q92.49-19.75 92.94-18.65L92.94-18.65Q95.39-23.9 97.89-23.9L97.89-23.9Q99.94-23.9 101.49-22.1L101.49-22.1 100.19-17.5Q99.39-18.05 98.19-18.05ZM110.49-3.6L110.49-3.6Q112.39-3.6 114.54-7.25L114.54-7.25 118.34-5Q117.39-3.35 116.51-2.2 115.64-1.05 113.89 0 112.14 1.05 109.99 1.05L109.99 1.05Q106.84 1.05 104.69-1.63 102.54-4.3 102.54-8.85L102.54-8.85Q102.54-14.05 104.39-18.55L104.39-18.55Q105.39-20.9 107.26-22.38 109.14-23.85 111.11-23.85 113.09-23.85 114.29-23.23 115.49-22.6 116.21-21.83 116.94-21.05 117.49-19.55 118.04-18.05 118.26-17.1 118.49-16.15 118.64-14.35L118.64-14.35Q118.84-11.95 118.84-10L118.84-10Q114.84-8.9 108.49-8L108.49-8Q108.64-6 109.19-4.8 109.74-3.6 110.49-3.6ZM111.59-18.95L111.59-18.95Q110.49-18.95 109.61-16.75 108.74-14.55 108.59-11.65L108.59-11.65Q111.24-12.2 113.19-12.7L113.19-12.7Q113.19-18.95 111.59-18.95ZM135.98-12.35L131.23-12.8Q131.33-13.5 131.33-14.6 131.33-15.7 130.88-16.85 130.43-18 129.73-18L129.73-18Q128.33-18 127.71-14.78 127.08-11.55 127.08-8.85L127.08-8.85Q127.08-4.3 128.93-4.3L128.93-4.3Q130.43-4.3 133.18-9.55L133.18-9.55 136.88-6.9Q135.53-3.25 133.51-1.1 131.48 1.05 128.63 1.05 125.78 1.05 123.51-1.2 121.23-3.45 121.23-8.05L121.23-8.05Q121.23-12.95 122.83-17.8L122.83-17.8Q123.73-20.45 125.51-22.15 127.28-23.85 130.03-23.85 132.78-23.85 134.61-21.05 136.43-18.25 136.43-14.85L136.43-14.85Q136.43-13.4 135.98-12.35L135.98-12.35ZM151.58-20.9L151.58-20.9 151.58-16.15Q149.18-16.15 147.88-16.1L147.88-16.1Q147.73-11.1 147.73 0.7L147.73 0.7 141.83 0.15Q141.83-8.6 141.98-15.7L141.98-15.7Q141.23-15.7 139.13-15.45L139.13-15.45 138.38-19.55Q139.58-19.8 142.13-20.2L142.13-20.2Q142.23-23.9 142.53-31L142.53-31 148.48-30.45Q148.18-25.5 148.03-20.85L148.03-20.85Q149.28-20.9 151.58-20.9ZM158.73-9L158.73-9Q158.73-3.35 161.23-3.35L161.23-3.35Q162.33-3.35 163.08-6.53 163.83-9.7 163.83-12.6L163.83-12.6Q163.83-19 161.73-19L161.73-19Q160.38-19 159.55-15.58 158.73-12.15 158.73-9ZM152.88-9.45L152.88-9.45Q152.88-14.1 154.78-18.55L154.78-18.55Q155.78-20.8 157.6-22.23 159.43-23.65 161.68-23.65 163.93-23.65 165.55-22.63 167.18-21.6 168.03-19.9L168.03-19.9Q169.68-16.55 169.68-12.6L169.68-12.6Q169.68-7.15 167.45-2.93 165.23 1.3 161.23 1.3L161.23 1.3Q152.88 1.3 152.88-9.45ZM182.03-18.05L182.03-18.05Q179.93-18.05 178.88-12.75L178.88-12.75Q178.98-9.25 178.98-6.05 178.98-2.85 178.78 1.15L178.78 1.15 172.98 0.65Q173.13-6.7 173.13-7.45L173.13-7.45Q173.13-16.7 172.23-21.6L172.23-21.6 175.98-21.2Q176.33-19.75 176.78-18.65L176.78-18.65Q179.23-23.9 181.73-23.9L181.73-23.9Q183.78-23.9 185.33-22.1L185.33-22.1 184.03-17.5Q183.23-18.05 182.03-18.05ZM200.42-25.05L200.42-25.05 205.22-22.25Q201.07-9.4 196.72 11.85L196.72 11.85 191.22 11.35Q192.02 7.4 193.87 0.45L193.87 0.45Q189.07-8.75 187.82-22.75L187.82-22.75 193.42-22.2Q194.17-13 195.82-6.5L195.82-6.5Q198.12-17.2 200.42-25.05ZM217.72-23.8L217.72-23.8Q224.32-23.8 224.32-12.8L224.32-12.8Q224.32-7 223.67-0.5L223.67-0.5 217.82-1.05Q218.37-6.75 218.37-12.58 218.37-18.4 216.72-18.4L216.72-18.4Q215.92-18.4 214.67-14.38 213.42-10.35 213.12-6.5L213.12-6.5Q213.22-4.45 213.52 0.9L213.52 0.9 207.67 0.35Q207.12-6.7 207.12-12.05 207.12-17.4 207.42-21.65L207.42-21.65 211.12-21.25Q211.22-20.85 211.87-18L211.87-18Q214.77-23.8 217.72-23.8ZM233.12-9L233.12-9Q233.12-3.35 235.62-3.35L235.62-3.35Q236.72-3.35 237.47-6.53 238.22-9.7 238.22-12.6L238.22-12.6Q238.22-19 236.12-19L236.12-19Q234.77-19 233.94-15.58 233.12-12.15 233.12-9ZM227.27-9.45L227.27-9.45Q227.27-14.1 229.17-18.55L229.17-18.55Q230.17-20.8 231.99-22.23 233.82-23.65 236.07-23.65 238.32-23.65 239.94-22.63 241.57-21.6 242.42-19.9L242.42-19.9Q244.07-16.55 244.07-12.6L244.07-12.6Q244.07-7.15 241.84-2.93 239.62 1.3 235.62 1.3L235.62 1.3Q227.27 1.3 227.27-9.45Z" opacity="1" transform="matrix(1,0,0,1,0,0)" fill="#f76d6d" class="wordmark-text-0" data-fill-palette-color="primary" id="text-0"></path></svg></g></svg></g><g transform="matrix(1,0,0,1,0,102.9175910610256)"><svg viewBox="0 0 175.83993982953214 49.774007323595974" height="49.774007323595974" width="175.83993982953214"><g transform="matrix(1,0,0,1,0,0)"><svg width="175.83993982953214" viewBox="-1.49 -37.5 172.64000000000001 48.8" height="49.774007323595974" data-palette-color="#eae7dc"><g class="slogan-text-1" data-fill-palette-color="secondary" id="text-1"><path d="M12.11-23.46L12.11-23.46Q12.11-25.68 12.07-27.54 12.04-29.39 12-30.77 11.96-32.15 11.93-32.96 11.89-33.76 11.89-33.91L11.89-33.91Q11.4-34.25 10.78-34.28 10.16-34.3 9.55-34.3L9.55-34.3Q8.69-34.3 7.5-33.9 6.3-33.5 5.18-32.75 4.05-32.01 3.27-30.92 2.49-29.83 2.49-28.49L2.49-28.49Q2.49-27.71 2.7-27.25 2.91-26.78 3.19-26.55 3.47-26.32 3.75-26.26 4.03-26.2 4.15-26.2L4.15-26.2Q4.76-26.2 5.15-26.4 5.54-26.61 5.86-26.84 6.18-27.08 6.46-27.28 6.74-27.49 7.1-27.49L7.1-27.49Q7.4-27.49 7.73-27.36 8.06-27.22 8.34-26.93 8.62-26.64 8.81-26.16 9.01-25.68 9.01-25L9.01-25Q9.01-24.02 8.63-23.32 8.25-22.61 7.65-22.13 7.06-21.66 6.29-21.42 5.52-21.19 4.76-21.19L4.76-21.19Q3.59-21.19 2.65-21.59 1.71-22 1.05-22.71 0.39-23.41 0.05-24.37-0.29-25.32-0.29-26.39L-0.29-26.39Q-0.29-28.93 0.77-30.82 1.83-32.71 3.6-33.98 5.37-35.25 7.68-35.88 9.99-36.5 12.45-36.5L12.45-36.5Q14.67-36.5 16.11-36.21 17.55-35.91 18.46-35.42 19.36-34.94 19.87-34.27 20.39-33.59 20.75-32.86L20.75-32.86Q22.24-29.83 23.65-26.9 25.05-23.97 26.35-21.19 27.66-18.41 28.89-15.83 30.13-13.26 31.3-10.96L31.3-10.96 31.3-14.45 31.3-22Q31.3-24.02 31.41-25.96 31.52-27.91 31.87-29.63 32.23-31.35 32.93-32.79 33.64-34.23 34.83-35.28 36.01-36.33 37.77-36.91 39.53-37.5 41.99-37.5L41.99-37.5Q43.24-37.5 44.29-37.32 45.34-37.13 46.11-36.79 46.88-36.45 47.31-35.95 47.75-35.45 47.75-34.84L47.75-34.84Q47.75-34.45 47.64-34.02 47.53-33.59 47.31-33.25 47.09-32.91 46.77-32.68 46.44-32.45 46-32.45L46-32.45Q45.63-32.45 45.32-32.96 45.02-33.47 44.57-34.09 44.12-34.72 43.37-35.23 42.63-35.74 41.36-35.74L41.36-35.74Q39.38-35.74 38.07-35.05 36.77-34.35 35.96-33.08 35.16-31.81 34.78-29.99 34.4-28.17 34.3-25.95L34.3-25.95Q34.25-24.41 34.22-22.96 34.18-21.51 34.17-20.02 34.16-18.53 34.16-16.93 34.16-15.33 34.16-13.5L34.16-13.5Q34.16-10.91 34.18-8.86 34.2-6.81 34.25-5.49L34.25-5.49Q35.35-3.61 36.43-2.11 37.5-0.61 38.54 0.43 39.58 1.46 40.63 2.03 41.67 2.59 42.75 2.59L42.75 2.59Q43.09 2.59 43.41 2.49 43.73 2.39 43.97 2.27L43.97 2.27Q44.24 2.15 44.51 1.95L44.51 1.95 45.29 2.91Q44.95 3.15 44.32 3.49 43.7 3.83 42.81 4.15 41.92 4.47 40.77 4.69 39.62 4.91 38.26 4.91L38.26 4.91Q36.28 4.91 34.46 3.94 32.64 2.98 30.96 1.29 29.27-0.39 27.73-2.65 26.2-4.91 24.77-7.5 23.34-10.08 22.02-12.89 20.7-15.7 19.47-18.44 18.24-21.19 17.1-23.77 15.97-26.34 14.89-28.49L14.89-28.49Q14.89-27.08 14.92-25.56 14.94-24.05 14.94-22.51L14.94-22.51 14.94-14.94Q14.94-12.92 14.84-10.99 14.75-9.06 14.38-7.34 14.01-5.62 13.32-4.16 12.62-2.71 11.43-1.66 10.23-0.61 8.47-0.02 6.71 0.56 4.25 0.56L4.25 0.56Q3 0.56 1.95 0.38 0.9 0.2 0.13-0.15-0.63-0.49-1.06-0.98-1.49-1.46-1.49-2.1L-1.49-2.1Q-1.49-2.49-1.38-2.92-1.27-3.34-1.05-3.69-0.83-4.03-0.51-4.26-0.2-4.49 0.24-4.49L0.24-4.49Q0.49-4.49 0.7-4.25 0.9-4 1.14-3.64 1.37-3.27 1.67-2.84 1.98-2.42 2.4-2.05 2.83-1.68 3.44-1.44 4.05-1.2 4.91-1.2L4.91-1.2Q6.88-1.2 8.19-1.89 9.5-2.59 10.3-3.87 11.11-5.15 11.47-6.96 11.84-8.76 11.94-11.01L11.94-11.01Q12.01-12.55 12.04-13.99 12.06-15.43 12.08-16.92 12.11-18.41 12.11-20.02 12.11-21.63 12.11-23.46ZM42.23-12.5L42.23-12.5Q42.23-15.7 43.16-18.1 44.09-20.51 45.64-22.12 47.19-23.73 49.24-24.54 51.29-25.34 53.54-25.34L53.54-25.34Q55.78-25.34 57.83-24.6 59.89-23.85 61.44-22.31 62.99-20.78 63.91-18.42 64.84-16.06 64.84-12.84L64.84-12.84Q64.84-9.64 63.91-7.18 62.99-4.71 61.44-3.03 59.89-1.34 57.83-0.48 55.78 0.39 53.54 0.39L53.54 0.39Q51.29 0.39 49.24-0.43 47.19-1.25 45.64-2.86 44.09-4.47 43.16-6.88 42.23-9.3 42.23-12.5ZM57.25-12.74L57.25-12.74Q57.25-14.7 57.11-16.52 56.98-18.33 56.59-19.75 56.2-21.17 55.47-22.01 54.73-22.85 53.54-22.85L53.54-22.85Q52.34-22.85 51.61-21.96 50.88-21.07 50.49-19.62 50.1-18.16 49.97-16.31 49.85-14.45 49.85-12.5L49.85-12.5Q49.85-10.55 49.97-8.68 50.1-6.81 50.49-5.35 50.88-3.88 51.61-2.99 52.34-2.1 53.54-2.1L53.54-2.1Q54.73-2.1 55.47-3.03 56.2-3.96 56.59-5.47 56.98-6.98 57.11-8.89 57.25-10.79 57.25-12.74ZM77.19-20.19L77.19-20.19Q78.12-21.61 79.17-22.75L79.17-22.75Q79.61-23.24 80.12-23.71 80.63-24.17 81.18-24.54 81.73-24.9 82.32-25.12 82.91-25.34 83.49-25.34L83.49-25.34Q84.74-25.34 85.44-24.6 86.15-23.85 86.15-22.51L86.15-22.51Q86.15-21.68 86.02-20.91 85.88-20.14 85.49-19.04L85.49-19.04 84.81-19.04Q84.66-19.8 84.13-20.3 83.59-20.8 82.56-20.8L82.56-20.8Q81.81-20.8 81.07-20.52 80.34-20.24 79.65-19.82 78.95-19.41 78.33-18.92 77.7-18.43 77.19-17.99L77.19-17.99 77.19-2.15Q77.19-1.83 77.09-1.39 77-0.95 76.62-0.56 76.24-0.17 75.5 0.11 74.75 0.39 73.46 0.39L73.46 0.39Q72.16 0.39 71.42 0.09 70.67-0.22 70.28-0.63 69.89-1.05 69.79-1.49 69.7-1.93 69.7-2.2L69.7-2.2 69.7-21.04Q69.7-21.75 69.37-22.28 69.04-22.8 68.26-22.8L68.26-22.8Q67.84-22.8 67.55-22.66 67.26-22.51 66.91-22.24L66.91-22.24 66.4-22.85Q66.96-23.32 67.66-23.77 68.35-24.22 69.16-24.56 69.97-24.9 70.89-25.12 71.82-25.34 72.85-25.34L72.85-25.34Q73.9-25.34 74.64-25.06 75.39-24.78 75.86-24.33 76.34-23.88 76.61-23.32 76.87-22.75 77.01-22.18 77.14-21.61 77.17-21.08 77.19-20.56 77.19-20.19ZM118.99-17.6L118.99-17.6Q118.99-19.21 118.77-20.26 118.55-21.31 118.29-22.01 118.03-22.71 117.81-23.16 117.6-23.61 117.6-24L117.6-24Q117.6-24.37 117.89-24.61 118.18-24.85 118.58-25.02 118.99-25.2 119.41-25.27 119.84-25.34 120.11-25.34L120.11-25.34Q120.82-25.34 121.14-25.15 121.45-24.95 121.65-24.39L121.65-24.39Q121.87-23.68 121.95-22.52 122.04-21.36 122.04-20.04L122.04-20.04Q122.04-18.16 121.82-15.92 121.6-13.67 121.12-11.4 120.65-9.13 119.9-7.01 119.16-4.88 118.11-3.23 117.06-1.59 115.69-0.6 114.32 0.39 112.59 0.39L112.59 0.39Q111.22 0.39 110.14-0.16 109.05-0.71 108.2-1.66 107.34-2.61 106.69-3.89 106.05-5.18 105.56-6.64L105.56-6.64Q105-5.15 104.26-3.87 103.53-2.59 102.64-1.64 101.75-0.68 100.68-0.15 99.6 0.39 98.36 0.39L98.36 0.39Q96.82 0.39 95.63-0.28 94.45-0.95 93.55-2.11 92.64-3.27 91.98-4.81 91.33-6.35 90.85-8.06 90.37-9.77 90.06-11.57 89.74-13.38 89.52-15.06 89.3-16.75 89.15-18.21 89.01-19.68 88.86-20.75L88.86-20.75Q88.69-21.73 88.36-22.27 88.03-22.8 87.25-22.8L87.25-22.8Q86.83-22.8 86.54-22.66 86.25-22.51 85.91-22.24L85.91-22.24 85.39-22.85Q85.95-23.32 86.65-23.77 87.35-24.22 88.15-24.56 88.96-24.9 89.89-25.12 90.81-25.34 91.84-25.34L91.84-25.34Q93.3-25.34 94.21-24.84 95.11-24.34 95.63-23.6 96.16-22.85 96.38-22 96.6-21.14 96.7-20.46L96.7-20.46Q97.14-16.77 97.56-13.96 97.99-11.16 98.48-9.27 98.97-7.37 99.54-6.41 100.11-5.44 100.9-5.44L100.9-5.44Q101.41-5.44 101.9-5.88 102.39-6.32 102.82-7.1 103.26-7.89 103.65-9 104.05-10.11 104.34-11.45L104.34-11.45Q104.09-12.79 103.92-14.11 103.75-15.43 103.62-16.64 103.48-17.85 103.36-18.9 103.24-19.95 103.09-20.75L103.09-20.75Q102.73-23.05 103.52-24.19 104.31-25.34 106.71-25.34L106.71-25.34Q107.76-25.34 108.48-25.16 109.2-24.98 109.67-24.48 110.15-23.97 110.44-23.11 110.73-22.24 110.91-20.9L110.91-20.9Q111.37-17.24 111.81-14.36 112.25-11.47 112.74-9.5 113.22-7.52 113.8-6.48 114.37-5.44 115.15-5.44L115.15-5.44Q115.98-5.44 116.69-6.47 117.4-7.5 117.91-9.18 118.43-10.86 118.71-13.06 118.99-15.26 118.99-17.6ZM137.78-6.69L137.78-12.65Q137.78-13.26 137.39-13.57 137-13.89 136.39-13.89L136.39-13.89Q135.54-13.89 134.77-13.5 134-13.11 133.41-12.35 132.83-11.6 132.49-10.49 132.14-9.38 132.14-7.91L132.14-7.91Q132.14-6.49 132.35-5.57 132.56-4.64 132.91-4.09 133.27-3.54 133.73-3.32 134.19-3.1 134.71-3.1L134.71-3.1Q135.34-3.1 135.9-3.43 136.46-3.76 136.88-4.27 137.29-4.79 137.54-5.42 137.78-6.05 137.78-6.69L137.78-6.69ZM133.9-23.34L133.9-23.34Q133.07-23.34 132.36-23.14 131.66-22.95 131.14-22.66 130.63-22.36 130.34-22.01 130.04-21.66 130.04-21.34L130.04-21.34Q130.04-20.97 130.42-20.81 130.8-20.65 131.26-20.45 131.73-20.24 132.11-19.86 132.49-19.48 132.49-18.7L132.49-18.7Q132.49-18.19 132.28-17.76 132.07-17.33 131.72-17 131.36-16.67 130.89-16.49 130.41-16.31 129.9-16.31L129.9-16.31Q128.53-16.31 127.69-17.24 126.85-18.16 126.85-19.7L126.85-19.7Q126.85-21.19 127.63-22.25 128.41-23.32 129.67-24 130.92-24.68 132.51-25.01 134.1-25.34 135.68-25.34L135.68-25.34Q137.59-25.34 139.32-24.93 141.05-24.51 142.39-23.61 143.72-22.71 144.51-21.31 145.3-19.92 145.3-17.94L145.3-17.94 145.3-4.15Q145.3-3.93 145.33-3.66 145.35-3.39 145.45-3.17 145.55-2.95 145.74-2.81 145.94-2.66 146.3-2.66L146.3-2.66Q146.74-2.66 147.12-2.99 147.5-3.32 147.79-3.66L147.79-3.66 148.4-3.15Q148.04-2.64 147.52-2.03 147.01-1.42 146.28-0.88 145.55-0.34 144.57 0.02 143.59 0.39 142.35 0.39L142.35 0.39Q140.81 0.39 139.61-0.52 138.42-1.44 138.05-3.34L138.05-3.34Q137.27-2.29 136.43-1.59 135.59-0.88 134.71-0.44 133.83 0 132.94 0.2 132.05 0.39 131.14 0.39L131.14 0.39Q129.97 0.39 128.87 0.02 127.77-0.34 126.91-1.14 126.04-1.93 125.51-3.2 124.99-4.47 124.99-6.3L124.99-6.3Q124.99-8.52 125.87-9.94 126.75-11.35 128.18-12.32 129.6-13.28 131.42-13.96 133.24-14.65 135.15-15.41L135.15-15.41Q136.56-15.97 137.21-17.08 137.86-18.19 137.86-19.36L137.86-19.36Q137.86-21.17 136.79-22.25 135.73-23.34 133.9-23.34ZM171.15-21.51L171.15-21.51Q171.15-17.04 170.29-12.88 169.42-8.72 167.9-5.07 166.37-1.42 164.27 1.6 162.17 4.61 159.7 6.76 157.24 8.91 154.49 10.11 151.75 11.3 148.94 11.3L148.94 11.3Q146.79 11.3 145.62 10.58 144.45 9.86 144.45 8.64L144.45 8.64Q144.45 8.18 144.59 7.74 144.74 7.3 144.98 6.96 145.23 6.62 145.57 6.41 145.91 6.2 146.3 6.2L146.3 6.2Q146.76 6.2 147.07 6.67 147.38 7.13 147.72 7.68 148.06 8.23 148.55 8.69 149.04 9.16 149.89 9.16L149.89 9.16Q150.99 9.16 152.18 8.78 153.38 8.4 154.59 7.69 155.8 6.98 157.01 5.97 158.22 4.96 159.39 3.71L159.39 3.71Q158.7 1.25 157.81-1.67 156.92-4.59 155.93-7.54 154.94-10.5 153.91-13.24 152.87-15.99 151.88-18.12 150.89-20.24 149.98-21.52 149.06-22.8 148.35-22.8L148.35-22.8Q147.89-22.8 147.63-22.66 147.38-22.51 147.03-22.24L147.03-22.24 146.55-22.85Q147.03-23.27 147.57-23.71 148.11-24.15 148.84-24.51 149.57-24.88 150.55-25.11 151.53-25.34 152.89-25.34L152.89-25.34Q154.38-25.34 155.66-24.67 156.95-24 158-22.19L158-22.19Q158.75-20.85 159.57-18.97 160.39-17.09 161.22-14.77 162.05-12.45 162.89-9.75 163.73-7.06 164.59-4.1L164.59-4.1Q166.1-7.28 167.03-10.83 167.96-14.38 167.96-18.14L167.96-18.14Q167.96-19.48 167.79-20.43 167.61-21.39 167.39-22.06 167.18-22.73 167-23.21 166.83-23.68 166.83-24.05L166.83-24.05Q166.83-24.41 167.13-24.67 167.42-24.93 167.83-25.07 168.25-25.22 168.68-25.28 169.1-25.34 169.4-25.34L169.4-25.34Q170.06-25.34 170.41-25.07 170.76-24.8 170.93-24.3 171.11-23.8 171.13-23.1 171.15-22.39 171.15-21.51Z" fill="#f76d6d" data-fill-palette-color="primary"></path></g></svg></g></svg></g></svg></g></svg></g><g><svg viewBox="0 0 163.86547246861838 283.8200892453669" height="283.8200892453669" width="163.86547246861838"><g><svg xmlns="http://www.w3.org/2000/svg" xmlns:xlink="http://www.w3.org/1999/xlink" version="1.1" x="0" y="0" viewBox="24.396621867457146 5.66984079853874 51.19767434806987 88.67596256683797" enable-background="new 0 0 100 100" xml:space="preserve" height="283.8200892453669" width="163.86547246861838" class="icon-icon-0" data-fill-palette-color="accent" id="icon-0"><path fill-rule="evenodd" clip-rule="evenodd" d="M61.204 8.152C60.767 7.894 61.018 7.614 60.478 7.717 60.239 7.761 60.567 8.217 60.478 8.443 60.13 9.311 60.054 9.625 60.623 10.33 61.772 11.759 59.961 11.34 59.896 11.782 59.619 13.72 59.744 11.979 59.439 13.377 59.195 14.501 59.988 13.95 59.896 14.976 59.862 15.359 59.413 15.575 59.025 15.267 58.364 14.742 58.708 13.563 57.574 13.815 57.244 13.888 57.987 14.698 57.428 14.686 56.208 14.659 57.088 13.332 56.12 13.525 55.686 13.611 56.6 14.288 56.266 14.396 55.176 14.746 55.58 14.271 54.96 14.686 54.759 14.82 55.186 15.187 55.42 15.245 55.97 15.379 57.583 14.263 56.992 16.575 56.818 17.254 56.012 15.704 55.609 15.913 55.207 16.121 56.088 16.688 55.685 17.155 53.927 19.192 56.07 19.737 54.668 20.204 53.807 20.492 54.843 16.116 53.423 16.904 53.104 17.081 53.393 17.345 53.216 17.736 53.136 17.912 52.817 17.668 52.636 17.736 52.409 17.821 52.26 18.3 52.054 18.171 51.612 17.894 52.393 16.73 51.184 17.009 50.532 17.159 50.03 18.404 50.898 18.749 51.353 18.929 51.643 18.097 51.764 18.461 51.993 19.147 50.94 19.283 51.474 20.058 51.8 20.534 51.995 19.52 52.2 20.058 52.685 21.326 53.603 20.925 52.927 21.656 51.903 22.76 52.206 21.399 50.903 20.41 50.065 19.774 51.579 19.121 50.603 18.896 50.349 18.837 50.426 19.857 50.312 19.623 49.669 18.294 49.613 19.125 49.295 19.913 48.721 21.337 50.348 20.485 50.457 20.495 50.603 20.508 50.364 20.818 50.457 20.93 50.457 20.93 52.101 21.714 51.407 22.025 50.682 22.349 49.884 20.562 49.867 21.427 49.8 24.925 50.225 22.246 50.167 23.544 50.133 24.298 49.324 23.627 49.005 24.271 48.582 25.122 49.312 24.785 49.731 25.287 49.843 25.422 49.357 25.414 49.295 25.577 49.194 25.85 49.57 26.357 49.295 26.449 48.472 26.724 47.865 26.481 47.573 27.051 46.999 28.169 46.374 27.644 46.536 28.337 46.761 29.293 47.343 28.574 47.844 28.047 48.247 27.623 48.469 28.348 48.899 27.953 49.111 27.758 49.378 26.852 50.022 27.322 50.656 27.782 49.698 28.386 49.389 28.577 48.329 29.231 47.634 28.226 48.011 29.86 48.097 30.232 47.885 30.072 48.224 30.562 48.619 31.131 48.392 31.574 47.699 31.242 47.065 30.939 47.897 31.22 47.553 29.79 47.435 29.296 47.26 29.014 46.827 29.353 46.044 29.97 47.52 30.335 46.681 30.66 46 30.924 46.423 29.47 45.81 30.079 45.152 30.733 46.96 31.326 46.536 31.821 45.643 32.865 46.266 32.852 46.736 33.509 46.738 33.512 47.837 34.221 46.971 34.87 46.463 35.251 46.804 33.964 45.81 34.143 45.053 34.279 45.914 34.946 45.084 35.305 44.311 35.64 46.246 35.926 46.391 36.031 47.168 36.595 45.123 36.372 44.939 36.613 44.583 37.077 45.307 37.224 44.939 37.63 44.479 38.137 43.963 36.993 43.777 37.485 43.256 38.863 43.67 37.885 43.197 38.501 42.884 38.908 44.328 39.439 43.487 40.098 43.177 40.341 42.939 39.664 42.76 39.953 41.96 41.255 42.989 40.92 43.114 41.053 43.237 41.184 42.661 41.086 42.616 41.261 42.472 41.816 42.095 42.05 42.47 42.278 43.312 42.789 42.797 43.37 43.837 42.938 44.286 42.751 44.142 42.429 44.475 42.529 44.807 42.629 44.974 43.1 44.503 43.295 43.411 43.747 42.985 43.002 42.47 43.73 42.185 44.134 42.93 44.256 42.76 44.602 42.477 45.182 41.701 45.848 41.6 46.344 41.269 47.959 43.042 47.186 42.326 48.232 41.846 48.932 41.81 47.005 41.164 47.65 40.468 48.346 41.389 48.238 41.685 49.392 41.783 49.769 41.894 50.058 42.239 50.264 42.259 50.275 42.202 50.561 42.18 50.554 41.571 50.354 41.6 49.421 41.163 50.119 40.934 50.483 38.494 52.848 39.74 52.704 40.552 52.61 40.71 51.574 40.873 52.441 40.969 52.956 40.72 52.254 40.146 52.732 39.542 53.235 41.096 54.542 40.146 54.764 39.453 54.928 39.714 53.77 39.129 53.894 38.836 53.956 38.515 54.706 38.133 55.076 37.253 55.929 37.429 56.863 37.096 58.25 37.016 58.583 35.898 58.056 35.717 59.212 35.612 59.881 36.443 60.373 36.661 59.122 36.694 58.931 37.258 58.929 37.242 59.122 37.02 61.703 38.973 59.601 39.42 58.831 39.799 58.18 38.81 57.151 39.42 56.943 40.508 56.572 39.76 57.692 39.856 57.96 39.937 58.189 40.426 57.773 40.583 57.96 40.769 58.183 40.866 58.767 40.583 58.831 39.326 59.114 39.99 58.941 39.566 60.138 39.432 60.514 38.548 61.672 38.114 61.59 37.876 61.545 38.353 60.9 38.114 60.864 37.077 60.71 37.574 61.697 37.213 61.291 37.006 61.058 37.255 59.158 35.666 60.603 35.193 61.034 35.945 61.275 35.5 61.735S34.911 60.931 34.307 61.432C34.166 61.549 34.127 61.883 33.945 62.258 33.646 62.874 34.052 62.757 33.758 63.187 33.422 63.677 32.704 62.899 32.791 63.327 33.011 64.406 34.774 64.098 34.049 64.93 33.041 66.084 33.194 63.05 32.016 63.478 31.506 63.664 32.86 64.464 32.451 64.639 31.416 65.082 31.23 65.37 30.564 64.93 30.04 64.582 30.304 63.905 29.838 64.349 29.205 64.953 29.583 64.37 29.547 65.51 29.544 65.643 29.278 65.366 29.159 65.425 27.454 66.268 28.548 66.554 28.096 67.253 27.854 67.627 27.172 67.624 27.515 67.979 27.879 68.355 28.158 67.488 29.693 68.269 31.059 68.964 29.87 70.186 29.692 70.012 29.19 69.52 29.581 69.705 29.475 69.009 29.4 68.52 28.566 68.113 28.414 68.655 28.19 69.458 29.818 69.525 28.766 70.03 27.468 70.653 28.345 68.187 27.37 68.414 25.741 68.792 29.513 71.321 26.788 69.866 26.444 69.681 26.907 70.182 26.498 70.302 25.245 70.666 25.862 69.892 24.901 69.866 24.702 69.861 24.592 70.305 24.738 70.441 24.999 70.685 25.322 70.232 25.481 70.591 25.705 71.094 24.746 70.908 25.045 71.318 25.395 71.796 29.176 71.28 29.111 71.608 28.944 72.439 28.14 72.072 26.259 71.827 24.54 71.603 25.694 72.638 24.465 73.06 24.109 73.182 25.249 73.747 25.453 73.814 25.803 73.93 27.699 73.892 26.205 74.075 25.488 74.163 25.812 74.322 25.292 74.47 25.05 74.538 24.701 74.276 24.609 74.513 24.494 74.806 25.214 75.962 25.189 76.981 25.164 78.043 26.087 76.949 26.496 77.563 26.95 78.24 25.521 77.637 25.189 78.289 24.746 79.157 25.41 80.475 26.206 80.031 26.976 79.602 26.377 78.115 27.223 78.579 28.024 79.019 26.329 80.081 27.223 80.902 28.189 81.792 27.69 79.908 29.113 79.743 30.961 79.529 30.678 78.725 30.998 79.74 31.216 80.433 30.022 79.736 29.445 81.237 29.418 81.306 29.528 80.634 29.256 80.322 28.924 79.94 28.644 80.479 28.567 80.951 28.409 81.921 29.528 81.894 28.026 82.722 26.465 83.581 26.678 82.274 26.062 82.499 25.779 82.603 25.67 83.138 26.733 83.725 27.355 84.069 27.982 83.206 28.53 83.662 29.255 84.264 27.174 84.453 26.787 85.695 26.622 86.225 26.253 84.424 25.955 84.183 25.646 83.935 24.917 83.895 25.473 84.967 25.665 85.338 25.899 85.207 25.917 85.785 25.925 86.067 25.208 86.608 25.626 87.726 25.888 88.425 25.398 88.392 25.917 88.453 26.305 88.498 25.91 88.323 26.207 88.017 26.49 87.726 27.44 88.543 27.719 87.073 27.784 86.731 27.026 86.076 27.369 85.984 28.294 85.737 27.322 86.023 28.16 86.645 28.594 86.967 28.84 86.555 28.966 87.291 29.041 87.726 28.693 87.429 28.24 87.727 28.074 87.837 28.506 88.149 28.386 88.308 28.22 88.529 27.803 87.808 27.17 89.469 27.118 89.606 25.988 89.365 27.188 91.102 28.06 92.364 29.261 92.559 30.853 93.245 31.366 93.466 30.32 93.47 30.563 93.972 31.057 94.991 36.622 93.809 36.807 91.848 36.832 91.576 38.271 89.733 38.463 89.53 38.602 89.383 39.189 89.386 39.276 89.18 39.471 88.712 38.51 88.561 40.002 87.728 40.181 87.627 40.332 88.34 40.438 88.165 40.81 87.54 42.024 86.643 41.673 85.49 41.373 84.5 41.477 85.679 40.91 84.207 40.614 83.442 39.495 83.155 40.293 82.646 41.416 81.929 39.909 84.012 41.744 84.243 42.432 84.331 41.358 82.902 41.308 82.211 41.301 82.115 41.584 82.115 41.599 82.211 41.712 83.024 41.878 83.164 42.018 83.824 42.159 84.48 41.794 85.141 42.179 85.842 42.497 86.42 43.61 86.122 44.08 86.554 44.604 87.034 44.819 88.255 45.663 87.729 46.654 87.111 45.154 83.585 45.2 83.321 45.282 82.845 45.292 83.365 45.367 82.65 45.393 82.4 45.167 81.937 45.373 81.776 46.12 81.19 46.457 81.682 46.876 80.666 48.164 77.535 45.237 76.989 45.954 74.517 46.086 74.06 46.515 74.106 46.692 73.652 47.407 71.823 45.424 72.082 44.912 70.477 44.33 68.657 45.075 68.722 44.067 66.094 43.737 65.238 43.626 64.312 43.4 63.421 43.024 61.929 42.675 61.718 43.431 59.217 44.343 56.196 45.095 58.268 46.969 56.367 49.245 54.059 46.515 54.508 45.953 53.317 44.763 50.796 47.056 51.759 46.492 47.405 46.447 47.059 46.185 44.534 46.25 44.183 46.366 43.546 47.999 43.051 47.985 42.427 47.941 40.416 49.366 36.985 49.292 36.764 48.927 35.669 48.039 35.548 48.421 34.005 48.727 32.774 48.6 30.723 49.728 30.085 50.965 29.386 50.339 31.137 51.326 30.666 52.122 30.286 51.375 28.806 51.047 28.169 50.961 28.004 50.757 28.271 51.325 27.616 52.544 26.211 56.933 28.468 55.682 26.019 55.502 25.668 54.925 26.212 54.956 25.873 55.042 24.914 54.863 23.633 54.956 22.678 54.987 22.345 56.111 22.47 56.262 22.098 56.534 21.423 55.693 19.553 57.263 20.359 57.683 20.574 58.134 21.565 58.641 21.898 60.063 22.832 59.287 23.246 61.266 23.358 61.536 23.373 61.889 23.652 62.071 23.404 63.092 22.005 62.628 21.318 63.959 21.517 63.975 21.518 64.766 23.091 65.7 22.098 66.059 21.717 65.56 21.024 65.725 20.528 65.824 20.235 66.421 20.229 66.426 19.92 66.447 18.856 65.599 17.643 65.673 16.69 65.705 16.271 64.908 14.213 65.699 13.532 66.486 12.856 66.738 13.017 67.732 12.806 68.238 12.699 67.772 11.723 68.314 11.354 69.012 10.878 69.877 12.735 71.217 12.806 74.384 12.972 72.457 14.216 72.959 16.29 73.105 16.894 73.45 16.957 73.831 16.436 74.252 15.858 73.721 15.394 73.695 14.952 73.653 14.207 73.841 14.404 74.207 13.908 74.961 12.879 73.93 12.744 75.294 12.091 75.862 11.819 75.49 11.417 75.268 10.933 74.902 10.133 74.306 11.709 73.976 11.118 73.469 10.209 73.916 10.096 73.395 9.613 72.949 9.198 72.449 10.383 72.959 8.742 73.017 8.556 73.426 8.585 73.54 8.742 73.657 8.903 73.196 9.233 73.377 9.317 74.698 9.929 73.779 8.263 73.976 7.871 74.214 7.395 75.252 7.512 74.396 6.734 73.701 6.104 73.366 6.613 72.696 6.522 71.918 6.418 72.444 5.947 70.99 6.189 70.075 6.341 69.71 5.636 69.04 5.984 68.476 6.276 69.511 8.314 68.75 8.743 68.125 9.094 67.533 8.305 68.023 6.564 68.207 5.913 68.678 6.822 68.604 6.274 68.495 5.476 67.147 5.617 66.304 5.861 65.014 6.234 66.075 7.129 66.571 7.726 66.725 7.912 66.262 8.633 66.166 8.931 65.912 9.723 67.078 9.301 66.281 10.049 65.094 11.161 65.461 9.858 65.099 8.753 64.627 7.307 65.631 8.076 64.96 7.477 63.615 6.277 64.474 8.844 64.102 10.63 64.062 10.825 63.599 10.607 63.527 10.793 63.394 11.141 64.465 13.722 62.941 13.534 61.789 13.392 62.766 11.184 62.84 10.309 62.867 9.979 62.151 9.547 62.65 9.178 63.428 8.604 63.965 8.856 63.522 8.307 62.967 7.621 62.906 7.672 62.07 7.726 61.864 7.729 62.577 8.966 61.204 8.152M59.025 9.023C59.025 8.476 58.642 8.432 59.171 8.151 59.676 7.883 60.171 8.627 59.897 9.313 59.781 9.603 59.025 9.382 59.025 9.023M59.171 10.912C59.171 10.523 59.352 10.238 59.607 10.33 61.097 10.871 59.171 12.705 59.171 10.912M33.325 60.134C32.907 60.402 32.158 60.455 32.433 59.849 33.057 58.476 34.274 59.527 33.325 60.134M40.321 32.284C41.038 30.615 41.749 31.924 40.713 33.254 39.976 34.198 40.089 32.825 40.321 32.284M51.476 15.993C51.788 15.351 52.665 15.47 52.783 15.993 53.19 17.814 51.329 16.296 51.476 15.993M41.747 31.82C41.103 31.571 41.323 31.018 42.328 30.078 42.446 29.967 43.112 32.347 41.747 31.82M45.521 25.867C45.741 26.254 45.822 25.269 46.103 25.576 46.669 26.198 46.062 26.35 46.248 27.029 46.29 27.183 46.894 25.302 47.063 25.197 47.464 24.95 47.772 25.133 47.792 25.519 47.846 26.583 46.471 27.222 46.396 28.049 46.351 28.565 46.57 28.934 46.172 29.13 45.623 29.401 45.867 29.064 45.862 29.061 45.381 28.708 45.642 29.294 44.587 29.87 43.633 30.389 44.51 30.656 43.634 30.949 42.863 31.207 42.546 29.919 43.523 29.531 46.022 28.537 45.79 28.034 45.454 26.526 45.235 25.548 44.972 26.248 44.941 26.013 44.796 24.888 44.826 25.024 45.49 24.094 46.368 22.864 45.253 25.391 45.521 25.867M53.508 16.138C53.508 15.995 53.888 15.165 54.089 15.267 55.954 16.217 53.508 17.137 53.508 16.138M57.83 12.62C57.817 12.141 58.561 11.28 58.88 11.638 60.796 13.78 57.871 14.149 57.83 12.62M32.744 60.86C33.154 60.86 33.185 60.366 33.47 60.279 33.829 60.169 34.717 60.25 34.632 60.569 34.33 61.707 32.162 62.536 32.309 60.86 32.321 60.716 32.599 60.86 32.744 60.86M27.227 76.542C26.957 76.433 26.943 75.608 27.227 75.67 28.441 75.939 28.504 76.077 28.969 74.944 29.151 74.501 29.028 75.654 31.002 75.67 31.15 75.672 30.466 73.626 31.499 74.124 32.044 74.387 31.145 74.36 31.293 75.235 31.329 75.448 32.086 75.49 31.873 75.525 30.321 75.781 31.67 76.947 30.829 77.088 30.292 77.178 31.376 76.457 30.567 75.815 29.862 75.255 30.525 75.571 29.033 76.313 28.511 76.573 27.895 76.811 27.227 76.542M30.421 66.959C30.035 66.285 29.388 66.172 29.84 65.797 30.765 65.03 32.752 66.081 32.599 66.087 31.372 66.135 31.289 65.873 31.002 67.104 30.934 67.392 30.62 67.306 30.421 66.959M44.07 27.754C43.378 27.425 42.861 28.611 42.921 27.921 42.975 27.324 43.563 27.517 43.905 26.864 44.149 26.398 43.729 25.947 44.216 25.867 45.266 25.697 44.652 26.104 44.652 26.884 44.652 27.169 45.355 27.221 44.683 27.931 44.093 28.555 44.51 27.963 44.07 27.754M56.848 11.637C57.084 11.569 56.975 11.283 57.181 11.098 57.567 10.753 57.319 11.05 57.646 10.837 58.352 10.375 57.634 10.132 58.446 10.185 58.521 10.189 58.312 12.526 56.704 12.799 55.849 12.944 56.613 12.929 55.832 12.217 55.031 11.489 56.506 11.737 56.848 11.637M48.135 21.801C48.412 21.262 48.608 20.441 49.006 20.784 49.57 21.269 49.423 21.666 49.495 22.014 49.667 22.848 49.156 23.407 48.716 24.269 47.616 26.419 47.19 22.156 47.269 21.967 47.381 21.696 48 22.063 48.135 21.801" fill="#f76d6d" data-fill-palette-color="accent"></path></svg></g></svg></g></svg></g><defs></defs></svg><rect width="395.52" height="193.54086248051138" fill="none" stroke="none" visibility="hidden"></rect></g></svg></g></svg>